<?xml version="1.0" encoding="utf-8" ?>
<svg baseProfile="full" height="921" version="1.1" viewBox="0 0 784 921" width="784" xmlns="http://www.w3.org/2000/svg" xmlns:ev="http://www.w3.org/2001/xml-events" xmlns:xlink="http://www.w3.org/1999/xlink"><defs><linearGradient gradientTransform="rotate(30 0.5 0.5)" gradientUnits="objectBoundingBox" id="g3_0" x1="0%" x2="100%" y1="0%" y2="0%"><stop offset="0" stop-color="#FF6B6B" /><stop offset="1" stop-color="#FFD93D" /></linearGradient><linearGradient gradientTransform="rotate(120 0.5 0.5)" gradientUnits="objectBoundingBox" id="g3_1" x1="0%" x2="100%" y1="0%" y2="0%"><stop offset="0" stop-color="#FF6B6B" /><stop offset="1" stop-color="#FFD93D" /></linearGradient><linearGradient gradientTransform="rotate(90 0.5 0.5)" gradientUnits="objectBoundingBox" id="g3_2" x1="0%" x2="100%" y1="0%" y2="0%"><stop offset="0" stop-color="#FF6B6B" /><stop offset="1" stop-color="#FFD93D" /></linearGradient><linearGradient gradientTransform="rotate(-30 0.5 0.5)" gradientUnits="objectBoundingBox" id="g3_3" x1="0%" x2="100%" y1="0%" y2="0%"><stop offset="0" stop-color="#FF6B6B" /><stop offset="1" stop-color="#FFD93D" /></linearGradient></defs><g fill-rule="evenodd"><path d="M 473 328 L 472 329 L 465 329 L 464 330 L 460 330 L 459 331 L 456 331 L 455 332 L 451 332 L 450 333 L 448 333 L 447 334 L 445 334 L 444 335 L 442 335 L 441 336 L 439 336 L 438 337 L 436 337 L 435 338 L 434 338 L 433 339 L 432 339 L 431 340 L 429 340 L 428 341 L 427 341 L 426 342 L 425 342 L 424 343 L 423 343 L 422 344 L 421 344 L 420 345 L 419 345 L 418 346 L 417 346 L 416 347 L 415 347 L 414 348 L 413 348 L 411 350 L 410 350 L 409 351 L 408 351 L 406 353 L 405 353 L 403 355 L 402 355 L 401 356 L 400 356 L 397 359 L 396 359 L 394 361 L 393 361 L 390 364 L 389 364 L 385 368 L 384 368 L 379 373 L 378 373 L 355 396 L 355 397 L 350 402 L 350 403 L 346 407 L 346 408 L 343 411 L 343 412 L 340 415 L 340 416 L 338 418 L 338 419 L 336 421 L 336 422 L 334 424 L 334 425 L 333 426 L 333 427 L 331 429 L 331 430 L 329 432 L 329 433 L 328 434 L 328 435 L 326 437 L 326 438 L 325 439 L 325 440 L 323 442 L 323 443 L 322 444 L 322 446 L 321 447 L 320 447 L 320 451 L 324 451 L 324 449 L 325 448 L 326 448 L 343 431 L 344 431 L 348 427 L 349 427 L 352 424 L 353 424 L 355 422 L 356 422 L 358 420 L 359 420 L 361 418 L 362 418 L 363 417 L 364 417 L 365 416 L 366 416 L 368 414 L 369 414 L 370 413 L 371 413 L 372 412 L 373 412 L 374 411 L 376 411 L 377 410 L 378 410 L 379 409 L 380 409 L 381 408 L 383 408 L 384 407 L 386 407 L 387 406 L 390 406 L 391 405 L 394 405 L 395 404 L 401 404 L 402 403 L 415 403 L 416 404 L 420 404 L 421 405 L 423 405 L 424 406 L 425 406 L 426 407 L 428 407 L 430 409 L 431 409 L 441 419 L 441 420 L 442 421 L 442 422 L 443 423 L 443 425 L 444 426 L 444 429 L 445 430 L 445 447 L 444 448 L 444 452 L 443 453 L 443 456 L 442 457 L 442 460 L 441 461 L 441 463 L 440 464 L 440 466 L 439 467 L 439 468 L 438 469 L 438 471 L 437 472 L 437 473 L 436 474 L 436 476 L 435 477 L 435 478 L 434 479 L 434 480 L 433 481 L 433 482 L 432 483 L 432 484 L 430 486 L 430 487 L 429 488 L 429 489 L 428 490 L 428 491 L 426 493 L 426 494 L 425 495 L 425 496 L 423 498 L 423 499 L 421 501 L 421 502 L 418 505 L 418 506 L 416 508 L 416 509 L 412 513 L 412 514 L 407 519 L 407 520 L 398 529 L 398 530 L 388 540 L 387 540 L 378 549 L 377 549 L 373 553 L 372 553 L 368 557 L 367 557 L 364 560 L 363 560 L 360 563 L 359 563 L 357 565 L 356 565 L 354 567 L 353 567 L 351 569 L 350 569 L 349 570 L 348 570 L 346 572 L 345 572 L 344 573 L 343 573 L 341 575 L 340 575 L 339 576 L 338 576 L 337 577 L 336 577 L 335 578 L 334 578 L 332 580 L 331 580 L 330 581 L 329 581 L 328 582 L 327 582 L 326 583 L 324 583 L 323 584 L 322 584 L 321 585 L 320 585 L 319 586 L 318 586 L 317 587 L 315 587 L 314 588 L 313 588 L 312 589 L 311 589 L 310 590 L 308 590 L 307 591 L 305 591 L 304 592 L 303 592 L 302 593 L 300 593 L 299 594 L 297 594 L 296 595 L 293 595 L 292 596 L 290 596 L 289 597 L 286 597 L 285 598 L 283 598 L 282 599 L 278 599 L 277 600 L 274 600 L 273 601 L 268 601 L 267 602 L 261 602 L 260 603 L 251 603 L 250 604 L 231 604 L 230 603 L 221 603 L 220 602 L 215 602 L 214 601 L 210 601 L 209 600 L 206 600 L 205 599 L 203 599 L 202 598 L 200 598 L 199 597 L 197 597 L 196 596 L 194 596 L 193 595 L 192 595 L 191 594 L 190 594 L 189 593 L 188 593 L 187 592 L 186 592 L 185 591 L 184 591 L 183 590 L 182 590 L 181 589 L 180 589 L 178 587 L 177 587 L 174 584 L 173 584 L 159 570 L 159 569 L 156 566 L 156 565 L 155 564 L 155 563 L 153 561 L 153 560 L 152 559 L 152 558 L 151 557 L 151 556 L 150 555 L 150 554 L 149 553 L 149 551 L 148 550 L 148 548 L 147 547 L 147 545 L 146 544 L 146 542 L 145 541 L 145 537 L 144 536 L 144 531 L 143 530 L 143 521 L 142 520 L 142 506 L 143 505 L 143 495 L 144 494 L 144 488 L 145 487 L 145 483 L 146 482 L 146 479 L 147 478 L 147 474 L 148 473 L 148 471 L 149 470 L 149 468 L 150 467 L 150 465 L 151 464 L 151 462 L 152 461 L 152 456 L 148 456 L 148 457 L 147 458 L 147 459 L 146 460 L 146 461 L 145 462 L 145 463 L 144 464 L 144 465 L 143 466 L 143 467 L 141 469 L 141 470 L 140 471 L 140 472 L 139 473 L 139 474 L 138 475 L 138 476 L 137 477 L 137 478 L 136 479 L 136 480 L 135 481 L 135 482 L 134 483 L 134 484 L 133 485 L 133 486 L 132 487 L 132 488 L 131 489 L 131 490 L 130 491 L 130 493 L 129 494 L 129 495 L 128 496 L 128 497 L 127 498 L 127 500 L 126 501 L 126 502 L 125 503 L 125 505 L 124 506 L 124 507 L 123 508 L 123 510 L 122 511 L 122 513 L 121 514 L 121 516 L 120 517 L 120 519 L 119 520 L 119 522 L 118 523 L 118 525 L 117 526 L 117 529 L 116 530 L 116 533 L 115 534 L 115 537 L 114 538 L 114 542 L 113 543 L 113 548 L 112 549 L 112 556 L 111 557 L 111 577 L 112 578 L 112 583 L 113 584 L 113 588 L 114 589 L 114 592 L 115 593 L 115 595 L 116 596 L 116 598 L 117 599 L 117 600 L 118 601 L 118 603 L 119 604 L 119 605 L 120 606 L 120 607 L 122 609 L 122 610 L 123 611 L 123 612 L 125 614 L 125 615 L 128 618 L 128 619 L 141 632 L 142 632 L 145 635 L 146 635 L 148 637 L 149 637 L 151 639 L 152 639 L 153 640 L 154 640 L 156 642 L 157 642 L 158 643 L 159 643 L 160 644 L 161 644 L 162 645 L 163 645 L 164 646 L 166 646 L 167 647 L 168 647 L 169 648 L 170 648 L 171 649 L 173 649 L 174 650 L 176 650 L 177 651 L 179 651 L 180 652 L 182 652 L 183 653 L 186 653 L 187 654 L 190 654 L 191 655 L 194 655 L 195 656 L 199 656 L 200 657 L 204 657 L 205 658 L 211 658 L 212 659 L 220 659 L 221 660 L 252 660 L 253 659 L 263 659 L 264 658 L 271 658 L 272 657 L 277 657 L 278 656 L 283 656 L 284 655 L 288 655 L 289 654 L 293 654 L 294 653 L 297 653 L 298 652 L 301 652 L 302 651 L 306 651 L 307 650 L 309 650 L 310 649 L 313 649 L 314 648 L 317 648 L 318 647 L 320 647 L 321 646 L 323 646 L 324 645 L 326 645 L 327 644 L 330 644 L 331 643 L 333 643 L 334 642 L 336 642 L 337 641 L 339 641 L 340 640 L 342 640 L 343 639 L 344 639 L 345 638 L 347 638 L 348 637 L 350 637 L 351 636 L 352 636 L 353 635 L 355 635 L 356 634 L 357 634 L 358 633 L 360 633 L 361 632 L 362 632 L 363 631 L 365 631 L 366 630 L 367 630 L 368 629 L 369 629 L 370 628 L 372 628 L 373 627 L 374 627 L 375 626 L 376 626 L 377 625 L 378 625 L 379 624 L 380 624 L 381 623 L 382 623 L 383 622 L 384 622 L 385 621 L 386 621 L 387 620 L 388 620 L 389 619 L 390 619 L 391 618 L 392 618 L 393 617 L 394 617 L 395 616 L 396 616 L 398 614 L 399 614 L 400 613 L 401 613 L 402 612 L 403 612 L 405 610 L 406 610 L 407 609 L 408 609 L 410 607 L 411 607 L 412 606 L 413 606 L 415 604 L 416 604 L 418 602 L 419 602 L 421 600 L 422 600 L 424 598 L 425 598 L 428 595 L 429 595 L 432 592 L 433 592 L 435 590 L 436 590 L 439 587 L 440 587 L 444 583 L 445 583 L 449 579 L 450 579 L 455 574 L 456 574 L 464 566 L 465 566 L 490 541 L 490 540 L 497 533 L 497 532 L 502 527 L 502 526 L 506 522 L 506 521 L 509 518 L 509 517 L 512 514 L 512 513 L 515 510 L 515 509 L 517 507 L 517 506 L 519 504 L 519 503 L 521 501 L 521 500 L 523 498 L 523 497 L 524 496 L 524 495 L 526 493 L 526 492 L 527 491 L 527 490 L 529 488 L 529 487 L 530 486 L 530 485 L 531 484 L 531 483 L 532 482 L 532 481 L 533 480 L 533 479 L 534 478 L 534 477 L 535 476 L 535 475 L 536 474 L 536 473 L 537 472 L 537 471 L 538 470 L 538 469 L 539 468 L 539 467 L 540 466 L 540 465 L 541 464 L 541 462 L 542 461 L 542 459 L 543 458 L 543 457 L 544 456 L 544 454 L 545 453 L 545 451 L 546 450 L 546 448 L 547 447 L 547 445 L 548 444 L 548 442 L 549 441 L 549 438 L 550 437 L 550 434 L 551 433 L 551 429 L 552 428 L 552 424 L 553 423 L 553 417 L 554 416 L 554 408 L 555 407 L 555 394 L 554 393 L 554 385 L 553 384 L 553 379 L 552 378 L 552 375 L 551 374 L 551 372 L 550 371 L 550 369 L 549 368 L 549 367 L 548 366 L 548 365 L 547 364 L 547 363 L 546 362 L 546 361 L 545 360 L 545 359 L 543 357 L 543 356 L 541 354 L 541 353 L 528 340 L 527 340 L 524 337 L 523 337 L 522 336 L 521 336 L 520 335 L 519 335 L 518 334 L 517 334 L 516 333 L 514 333 L 513 332 L 511 332 L 510 331 L 508 331 L 507 330 L 503 330 L 502 329 L 496 329 L 495 328 Z" fill="url(#g3_0)" stroke="none" /><path d="M 397 205 L 396 206 L 385 206 L 384 207 L 377 207 L 376 208 L 370 208 L 369 209 L 365 209 L 364 210 L 360 210 L 359 211 L 356 211 L 355 212 L 352 212 L 351 213 L 348 213 L 347 214 L 344 214 L 343 215 L 341 215 L 340 216 L 337 216 L 336 217 L 334 217 L 333 218 L 332 218 L 331 219 L 329 219 L 328 220 L 326 220 L 325 221 L 324 221 L 323 222 L 321 222 L 320 223 L 319 223 L 318 224 L 316 224 L 315 225 L 314 225 L 313 226 L 312 226 L 311 227 L 310 227 L 309 228 L 308 228 L 307 229 L 306 229 L 305 230 L 304 230 L 303 231 L 302 231 L 301 232 L 300 232 L 299 233 L 298 233 L 297 234 L 296 234 L 295 235 L 294 235 L 292 237 L 291 237 L 290 238 L 289 238 L 287 240 L 286 240 L 285 241 L 284 241 L 282 243 L 281 243 L 279 245 L 278 245 L 275 248 L 274 248 L 272 250 L 271 250 L 267 254 L 266 254 L 263 257 L 262 257 L 257 262 L 256 262 L 236 282 L 236 283 L 230 289 L 230 290 L 226 294 L 226 295 L 223 298 L 223 299 L 220 302 L 220 303 L 218 305 L 218 306 L 216 308 L 216 309 L 214 311 L 214 312 L 212 314 L 212 315 L 211 316 L 211 317 L 209 319 L 209 320 L 208 321 L 208 322 L 206 324 L 206 325 L 205 326 L 205 327 L 204 328 L 204 329 L 203 330 L 203 331 L 201 333 L 201 334 L 200 335 L 200 336 L 199 337 L 199 339 L 198 340 L 198 341 L 197 342 L 197 343 L 196 344 L 196 345 L 195 346 L 195 347 L 194 348 L 194 350 L 193 351 L 193 352 L 192 353 L 192 355 L 191 356 L 191 357 L 190 358 L 190 360 L 189 361 L 189 363 L 188 364 L 188 366 L 187 367 L 187 369 L 186 370 L 186 372 L 185 373 L 185 375 L 184 376 L 184 379 L 183 380 L 183 382 L 182 383 L 182 386 L 181 387 L 181 391 L 180 392 L 180 396 L 179 397 L 179 402 L 178 403 L 178 409 L 177 410 L 177 418 L 176 419 L 176 457 L 177 458 L 177 466 L 178 467 L 178 473 L 179 474 L 179 478 L 180 479 L 180 483 L 181 484 L 181 487 L 182 488 L 182 491 L 183 492 L 183 495 L 184 496 L 184 498 L 185 499 L 185 501 L 186 502 L 186 504 L 187 505 L 187 506 L 188 507 L 188 509 L 189 510 L 189 511 L 190 512 L 190 513 L 191 514 L 191 515 L 192 516 L 192 517 L 193 518 L 193 519 L 194 520 L 194 521 L 195 522 L 195 523 L 197 525 L 197 526 L 199 528 L 199 529 L 202 532 L 202 533 L 207 538 L 207 539 L 209 541 L 210 541 L 216 547 L 217 547 L 220 550 L 221 550 L 223 552 L 224 552 L 225 553 L 226 553 L 227 554 L 228 554 L 229 555 L 230 555 L 231 556 L 232 556 L 233 557 L 234 557 L 235 558 L 237 558 L 238 559 L 239 559 L 240 560 L 242 560 L 243 561 L 246 561 L 247 562 L 251 562 L 252 563 L 258 563 L 259 564 L 278 564 L 279 563 L 286 563 L 287 562 L 291 562 L 292 561 L 296 561 L 297 560 L 300 560 L 301 559 L 303 559 L 304 558 L 307 558 L 308 557 L 310 557 L 311 556 L 312 556 L 313 555 L 315 555 L 316 554 L 317 554 L 318 553 L 320 553 L 321 552 L 322 552 L 323 551 L 324 551 L 325 550 L 326 550 L 327 549 L 328 549 L 329 548 L 330 548 L 331 547 L 332 547 L 333 546 L 334 546 L 335 545 L 336 545 L 337 544 L 338 544 L 339 543 L 340 543 L 341 542 L 342 542 L 343 541 L 344 541 L 345 540 L 346 540 L 347 539 L 348 539 L 350 537 L 351 537 L 352 536 L 353 536 L 353 532 L 345 532 L 344 533 L 329 533 L 328 532 L 323 532 L 322 531 L 319 531 L 318 530 L 315 530 L 314 529 L 312 529 L 311 528 L 310 528 L 309 527 L 307 527 L 306 526 L 305 526 L 304 525 L 303 525 L 302 524 L 301 524 L 300 523 L 299 523 L 297 521 L 296 521 L 295 520 L 294 520 L 291 517 L 290 517 L 278 505 L 278 504 L 275 501 L 275 500 L 273 498 L 273 497 L 272 496 L 272 495 L 270 493 L 270 492 L 269 491 L 269 489 L 268 488 L 268 487 L 267 486 L 267 484 L 266 483 L 266 481 L 265 480 L 265 478 L 264 477 L 264 474 L 263 473 L 263 468 L 262 467 L 262 461 L 261 460 L 261 436 L 262 435 L 262 427 L 263 426 L 263 420 L 264 419 L 264 415 L 265 414 L 265 410 L 266 409 L 266 406 L 267 405 L 267 402 L 268 401 L 268 399 L 269 398 L 269 395 L 270 394 L 270 392 L 271 391 L 271 389 L 272 388 L 272 386 L 273 385 L 273 383 L 274 382 L 274 381 L 275 380 L 275 378 L 276 377 L 276 375 L 277 374 L 277 373 L 278 372 L 278 371 L 279 370 L 279 368 L 280 367 L 280 366 L 281 365 L 281 364 L 282 363 L 282 362 L 283 361 L 283 360 L 284 359 L 284 358 L 285 357 L 285 356 L 286 355 L 286 354 L 287 353 L 287 352 L 288 351 L 288 350 L 290 348 L 290 347 L 291 346 L 291 345 L 293 343 L 293 342 L 294 341 L 294 340 L 296 338 L 296 337 L 298 335 L 298 334 L 300 332 L 300 331 L 302 329 L 302 328 L 305 325 L 305 324 L 308 321 L 308 320 L 312 316 L 312 315 L 318 309 L 318 308 L 337 289 L 338 289 L 344 283 L 345 283 L 349 279 L 350 279 L 353 276 L 354 276 L 357 273 L 358 273 L 360 271 L 361 271 L 364 268 L 365 268 L 366 267 L 367 267 L 369 265 L 370 265 L 372 263 L 373 263 L 374 262 L 375 262 L 377 260 L 378 260 L 379 259 L 380 259 L 381 258 L 382 258 L 384 256 L 385 256 L 386 255 L 387 255 L 388 254 L 389 254 L 390 253 L 391 253 L 392 252 L 393 252 L 394 251 L 395 251 L 396 250 L 397 250 L 398 249 L 400 249 L 401 248 L 402 248 L 403 247 L 404 247 L 405 246 L 407 246 L 408 245 L 409 245 L 410 244 L 412 244 L 413 243 L 414 243 L 415 242 L 417 242 L 418 241 L 420 241 L 421 240 L 423 240 L 424 239 L 426 239 L 427 238 L 429 238 L 430 237 L 433 237 L 434 236 L 436 236 L 437 235 L 441 235 L 442 234 L 445 234 L 446 233 L 450 233 L 451 232 L 456 232 L 457 231 L 464 231 L 465 230 L 475 230 L 476 229 L 493 229 L 494 230 L 500 230 L 501 231 L 507 231 L 507 227 L 505 227 L 504 226 L 503 226 L 502 225 L 501 225 L 500 224 L 498 224 L 497 223 L 496 223 L 495 222 L 493 222 L 492 221 L 491 221 L 490 220 L 488 220 L 487 219 L 485 219 L 484 218 L 482 218 L 481 217 L 479 217 L 478 216 L 476 216 L 475 215 L 473 215 L 472 214 L 470 214 L 469 213 L 466 213 L 465 212 L 463 212 L 462 211 L 458 211 L 457 210 L 454 210 L 453 209 L 449 209 L 448 208 L 443 208 L 442 207 L 435 207 L 434 206 L 423 206 L 422 205 Z" fill="url(#g3_1)" stroke="none" /><path d="M 596 145 L 596 161 L 595 162 L 595 171 L 594 172 L 594 178 L 593 179 L 593 183 L 592 184 L 592 187 L 591 188 L 591 191 L 590 192 L 590 195 L 589 196 L 589 198 L 588 199 L 588 201 L 587 202 L 587 203 L 586 204 L 586 206 L 585 207 L 585 208 L 584 209 L 584 210 L 583 211 L 583 212 L 582 213 L 582 214 L 581 215 L 581 216 L 579 218 L 579 219 L 576 222 L 576 223 L 564 235 L 563 235 L 560 238 L 559 238 L 557 240 L 556 240 L 555 241 L 554 241 L 553 242 L 552 242 L 550 244 L 548 244 L 547 245 L 546 245 L 545 246 L 544 246 L 543 247 L 541 247 L 540 248 L 539 248 L 538 249 L 535 249 L 534 250 L 532 250 L 531 251 L 528 251 L 527 252 L 523 252 L 522 253 L 518 253 L 517 254 L 510 254 L 509 255 L 500 255 L 500 259 L 508 259 L 509 260 L 519 260 L 520 261 L 525 261 L 526 262 L 530 262 L 531 263 L 534 263 L 535 264 L 537 264 L 538 265 L 540 265 L 541 266 L 542 266 L 543 267 L 545 267 L 546 268 L 547 268 L 548 269 L 549 269 L 550 270 L 551 270 L 552 271 L 553 271 L 554 272 L 555 272 L 557 274 L 558 274 L 560 276 L 561 276 L 564 279 L 565 279 L 577 291 L 577 292 L 580 295 L 580 296 L 581 297 L 581 298 L 583 300 L 583 301 L 584 302 L 584 303 L 585 304 L 585 305 L 586 306 L 586 307 L 587 308 L 587 309 L 588 310 L 588 312 L 589 313 L 589 314 L 590 315 L 590 317 L 591 318 L 591 321 L 592 322 L 592 325 L 593 326 L 593 330 L 594 331 L 594 336 L 595 337 L 595 347 L 596 348 L 596 367 L 600 367 L 600 359 L 601 358 L 601 349 L 602 348 L 602 338 L 603 337 L 603 333 L 604 332 L 604 328 L 605 327 L 605 324 L 606 323 L 606 320 L 607 319 L 607 317 L 608 316 L 608 314 L 609 313 L 609 311 L 610 310 L 610 309 L 611 308 L 611 306 L 612 305 L 612 304 L 613 303 L 613 302 L 615 300 L 615 299 L 616 298 L 616 297 L 618 295 L 618 294 L 621 291 L 621 290 L 634 277 L 635 277 L 638 274 L 639 274 L 640 273 L 641 273 L 643 271 L 644 271 L 645 270 L 646 270 L 647 269 L 648 269 L 649 268 L 650 268 L 651 267 L 653 267 L 654 266 L 655 266 L 656 265 L 658 265 L 659 264 L 661 264 L 662 263 L 665 263 L 666 262 L 670 262 L 671 261 L 677 261 L 678 260 L 687 260 L 688 259 L 698 259 L 698 255 L 688 255 L 687 254 L 680 254 L 679 253 L 674 253 L 673 252 L 670 252 L 669 251 L 666 251 L 665 250 L 662 250 L 661 249 L 659 249 L 658 248 L 657 248 L 656 247 L 654 247 L 653 246 L 652 246 L 651 245 L 650 245 L 649 244 L 648 244 L 647 243 L 646 243 L 645 242 L 644 242 L 643 241 L 642 241 L 641 240 L 640 240 L 638 238 L 637 238 L 634 235 L 633 235 L 621 223 L 621 222 L 618 219 L 618 218 L 616 216 L 616 215 L 615 214 L 615 213 L 614 212 L 614 211 L 613 210 L 613 209 L 612 208 L 612 207 L 611 206 L 611 205 L 610 204 L 610 203 L 609 202 L 609 200 L 608 199 L 608 197 L 607 196 L 607 194 L 606 193 L 606 191 L 605 190 L 605 187 L 604 186 L 604 182 L 603 181 L 603 176 L 602 175 L 602 166 L 601 165 L 601 155 L 600 154 L 600 145 Z" fill="url(#g3_2)" stroke="none" /><path d="M 614 404 L 614 409 L 613 410 L 613 415 L 612 416 L 612 419 L 611 420 L 611 424 L 610 425 L 610 428 L 609 429 L 609 431 L 608 432 L 608 435 L 607 436 L 607 438 L 606 439 L 606 441 L 605 442 L 605 444 L 604 445 L 604 447 L 603 448 L 603 449 L 602 450 L 602 452 L 601 453 L 601 454 L 600 455 L 600 457 L 599 458 L 599 459 L 598 460 L 598 461 L 597 462 L 597 464 L 596 465 L 596 466 L 595 467 L 595 468 L 594 469 L 594 470 L 593 471 L 593 472 L 592 473 L 592 474 L 591 475 L 591 476 L 590 477 L 590 478 L 589 479 L 589 480 L 588 481 L 588 482 L 587 483 L 587 484 L 585 486 L 585 487 L 584 488 L 584 489 L 583 490 L 583 491 L 581 493 L 581 494 L 579 496 L 579 497 L 578 498 L 578 499 L 576 501 L 576 502 L 574 504 L 574 505 L 572 507 L 572 508 L 570 510 L 570 511 L 567 514 L 567 515 L 565 517 L 565 518 L 562 521 L 562 522 L 559 525 L 559 526 L 555 530 L 555 531 L 551 535 L 551 536 L 546 541 L 546 542 L 539 549 L 539 550 L 511 578 L 510 578 L 502 586 L 501 586 L 495 592 L 494 592 L 490 596 L 489 596 L 485 600 L 484 600 L 481 603 L 480 603 L 477 606 L 476 606 L 474 608 L 473 608 L 470 611 L 469 611 L 467 613 L 466 613 L 464 615 L 463 615 L 461 617 L 460 617 L 458 619 L 457 619 L 456 620 L 455 620 L 453 622 L 452 622 L 450 624 L 449 624 L 448 625 L 447 625 L 445 627 L 444 627 L 443 628 L 442 628 L 441 629 L 440 629 L 438 631 L 437 631 L 436 632 L 435 632 L 434 633 L 433 633 L 432 634 L 431 634 L 430 635 L 429 635 L 428 636 L 427 636 L 426 637 L 425 637 L 424 638 L 423 638 L 422 639 L 421 639 L 420 640 L 419 640 L 418 641 L 417 641 L 416 642 L 415 642 L 414 643 L 413 643 L 412 644 L 411 644 L 410 645 L 408 645 L 407 646 L 406 646 L 405 647 L 404 647 L 403 648 L 401 648 L 400 649 L 399 649 L 398 650 L 396 650 L 395 651 L 393 651 L 392 652 L 391 652 L 390 653 L 388 653 L 387 654 L 384 654 L 383 655 L 381 655 L 380 656 L 377 656 L 376 657 L 373 657 L 372 658 L 369 658 L 369 662 L 378 662 L 379 661 L 388 661 L 389 660 L 394 660 L 395 659 L 400 659 L 401 658 L 405 658 L 406 657 L 410 657 L 411 656 L 415 656 L 416 655 L 419 655 L 420 654 L 423 654 L 424 653 L 426 653 L 427 652 L 430 652 L 431 651 L 433 651 L 434 650 L 436 650 L 437 649 L 439 649 L 440 648 L 442 648 L 443 647 L 445 647 L 446 646 L 448 646 L 449 645 L 451 645 L 452 644 L 453 644 L 454 643 L 456 643 L 457 642 L 458 642 L 459 641 L 461 641 L 462 640 L 463 640 L 464 639 L 466 639 L 467 638 L 468 638 L 469 637 L 470 637 L 471 636 L 472 636 L 473 635 L 474 635 L 475 634 L 476 634 L 477 633 L 478 633 L 479 632 L 480 632 L 481 631 L 482 631 L 483 630 L 484 630 L 485 629 L 486 629 L 487 628 L 488 628 L 490 626 L 491 626 L 492 625 L 493 625 L 495 623 L 496 623 L 497 622 L 498 622 L 500 620 L 501 620 L 503 618 L 504 618 L 506 616 L 507 616 L 509 614 L 510 614 L 513 611 L 514 611 L 517 608 L 518 608 L 522 604 L 523 604 L 529 598 L 530 598 L 552 576 L 552 575 L 557 570 L 557 569 L 562 564 L 562 563 L 565 560 L 565 559 L 568 556 L 568 555 L 571 552 L 571 551 L 573 549 L 573 548 L 575 546 L 575 545 L 577 543 L 577 542 L 578 541 L 578 540 L 580 538 L 580 537 L 581 536 L 581 535 L 583 533 L 583 532 L 584 531 L 584 530 L 585 529 L 585 528 L 586 527 L 586 526 L 588 524 L 588 523 L 589 522 L 589 521 L 590 520 L 590 519 L 591 518 L 591 517 L 592 516 L 592 515 L 593 514 L 593 513 L 594 512 L 594 510 L 595 509 L 595 508 L 596 507 L 596 506 L 597 505 L 597 504 L 598 503 L 598 501 L 599 500 L 599 499 L 600 498 L 600 496 L 601 495 L 601 494 L 602 493 L 602 491 L 603 490 L 603 488 L 604 487 L 604 485 L 605 484 L 605 482 L 606 481 L 606 479 L 607 478 L 607 476 L 608 475 L 608 472 L 609 471 L 609 469 L 610 468 L 610 465 L 611 464 L 611 461 L 612 460 L 612 456 L 613 455 L 613 452 L 614 451 L 614 446 L 615 445 L 615 439 L 616 438 L 616 430 L 617 429 L 617 416 L 618 415 L 618 404 Z" fill="url(#g3_3)" stroke="none" /></g></svg>