<?xml version="1.0" encoding="utf-8" ?>
<svg baseProfile="full" height="921" version="1.1" viewBox="0 0 784 921" width="784" xmlns="http://www.w3.org/2000/svg" xmlns:ev="http://www.w3.org/2001/xml-events" xmlns:xlink="http://www.w3.org/1999/xlink"><defs /><g fill="#000000" fill-rule="evenodd" stroke="none"><path d="M 614.932 405.036 C 614.821 405.174, 614.709 405.311, 614.597 405.449 C 613.279 408.005, 610.853 423.350, 609.644 427.801 C 605.959 440.763, 601.418 453.021, 596.010 465.362 C 569.940 522.626, 520.010 575.868, 468.696 611.523 C 453.764 621.692, 438.458 630.544, 422.296 638.590 C 408.101 645.682, 393.700 651.994, 378.313 656.039 C 376.653 656.467, 367.163 657.866, 370.186 661.168 C 373.781 663.455, 397.548 659.071, 402.841 658.034 C 480.140 642.936, 543.906 601.209, 583.159 531.997 C 598.774 503.528, 610.983 472.856, 615.194 440.446 C 616.080 434.412, 616.984 428.087, 617.002 421.991 C 617.021 419.548, 620.077 403.177, 615.330 404.750 Z" /><path d="M 473.160 328.385 C 465.385 329.662, 457.794 330.636, 450.136 332.684 C 410.339 344.230, 379.044 369.147, 352.168 399.885 C 343.103 410.388, 335.292 422.059, 328.211 433.969 C 326.717 436.485, 318.766 448.025, 321.258 450.196 C 323.464 451.122, 326.870 446.971, 328.369 445.572 C 332.794 441.364, 336.898 436.780, 341.439 432.701 C 354.526 421.444, 370.612 411.084, 387.324 406.329 C 403.895 401.824, 422.081 400.258, 435.291 413.293 C 438.824 416.815, 441.439 419.655, 443.106 424.457 C 445.766 432.737, 445.568 441.958, 443.917 450.428 C 438.593 476.653, 422.376 503.383, 404.180 522.783 C 399.605 527.531, 395.513 532.629, 390.758 537.203 C 360.424 565.589, 321.350 590.096, 280.304 598.930 C 269.124 601.231, 257.801 603.364, 246.379 603.954 C 223.097 604.675, 196.229 600.250, 176.841 586.484 C 155.758 571.115, 144.477 549.653, 142.906 523.722 C 142.690 521.154, 142.141 518.668, 142.033 516.083 C 141.923 511.488, 142.384 507.386, 142.861 502.851 C 143.933 488.568, 146.648 476.620, 150.975 463.005 C 151.534 461.144, 152.467 458.327, 150.755 456.824 C 149.750 456.381, 149.181 456.582, 148.292 457.166 C 145.641 459.625, 142.972 466.287, 141.003 469.677 C 132.717 484.427, 125.918 500.387, 120.526 516.404 C 114.294 535.015, 110.143 554.315, 111.078 574.036 C 114.105 615.295, 142.969 639.540, 180.100 651.701 C 219.281 664.309, 261.029 661.239, 300.474 651.768 C 332.995 644.083, 364.398 632.298, 393.982 616.740 C 449.273 586.804, 505.634 534.296, 533.866 477.727 C 544.300 456.936, 552.473 434.292, 554.074 410.885 C 554.317 408.049, 554.902 405.320, 554.982 402.460 C 555.042 398.419, 554.559 394.809, 554.134 390.824 C 552.852 375.498, 548.091 360.317, 537.076 349.082 C 532.979 344.948, 529.062 340.914, 524.220 337.630 C 511.012 329.146, 489.285 326.382, 473.913 328.273 Z" /><path d="M 471.841 340.616 C 476.303 339.874, 480.685 340.000, 485.191 340.000 C 506.282 340.000, 523.315 347.721, 534.455 366.098 C 546.640 386.113, 543.477 414.695, 537.346 436.245 C 534.241 447.426, 530.275 458.374, 525.296 468.868 C 501.347 518.163, 455.842 562.759, 410.627 592.905 C 400.727 599.422, 390.150 605.377, 379.658 610.879 C 353.558 624.075, 324.422 634.106, 295.957 640.658 C 265.708 647.766, 234.097 650.971, 203.375 645.072 C 180.609 640.723, 155.140 631.881, 139.795 613.502 C 124.300 594.295, 120.492 573.932, 124.448 549.832 C 125.010 546.582, 125.706 535.060, 131.498 537.907 C 134.089 539.977, 134.981 546.672, 135.980 549.861 C 140.119 562.730, 146.992 574.921, 156.554 584.554 C 176.677 604.677, 203.966 613.830, 231.946 615.071 C 234.782 615.269, 237.511 615.910, 240.368 615.962 C 243.238 615.939, 245.950 615.319, 248.791 615.090 C 321.749 611.203, 392.129 565.705, 432.204 505.693 C 443.195 489.258, 454.729 465.896, 456.069 445.953 C 456.260 443.663, 456.772 441.425, 456.854 439.128 C 456.658 426.411, 452.206 412.418, 442.325 403.907 C 427.497 391.631, 410.961 390.223, 392.544 393.147 C 388.572 393.839, 384.193 395.700, 380.195 395.620 C 372.877 394.477, 381.522 386.406, 383.603 384.559 C 395.670 374.306, 408.368 364.107, 422.586 356.950 C 427.428 354.529, 432.242 351.905, 437.273 349.901 C 442.552 347.812, 447.899 345.865, 453.366 344.317 C 459.265 342.719, 465.047 341.592, 471.090 340.735 Z" /><path d="M 397.160 205.385 C 390.872 206.418, 384.301 206.446, 377.930 207.271 C 356.112 210.549, 335.061 216.073, 314.802 224.911 C 292.730 234.934, 272.340 247.935, 254.140 263.966 C 219.025 296.184, 193.313 338.926, 181.831 385.230 C 179.011 397.027, 177.319 409.232, 176.125 421.285 C 175.760 426.553, 176.000 431.958, 176.000 437.242 C 176.000 445.009, 176.008 452.377, 176.858 460.098 C 181.800 517.456, 211.100 566.695, 274.915 563.931 C 284.974 563.244, 294.896 560.946, 304.579 558.253 C 317.636 554.666, 329.769 547.903, 341.803 541.840 C 344.092 540.695, 354.494 536.441, 351.966 532.956 C 349.354 530.928, 343.700 532.762, 340.592 532.945 C 337.443 533.058, 334.212 533.100, 331.070 532.853 C 307.006 530.231, 285.096 517.640, 272.560 496.623 C 259.833 475.150, 259.299 448.553, 262.812 424.522 C 264.778 409.308, 269.126 394.091, 274.671 379.809 C 297.627 318.335, 348.055 269.296, 408.628 244.940 C 423.081 239.136, 438.259 234.354, 453.683 231.976 C 465.094 230.199, 478.538 228.532, 490.037 229.078 C 492.824 229.282, 495.614 229.816, 498.391 230.167 C 500.661 230.492, 503.838 231.503, 505.882 230.114 C 508.288 227.213, 501.296 224.953, 499.497 224.215 C 475.318 214.548, 451.539 207.519, 425.445 205.892 C 416.504 205.071, 406.886 204.170, 397.913 205.273 Z" /><path d="M 394.840 217.615 C 401.188 216.572, 425.161 216.032, 430.382 218.825 C 431.544 219.799, 431.754 220.742, 431.622 222.217 C 431.230 223.731, 430.572 224.373, 429.227 225.120 C 423.726 227.614, 417.479 229.069, 411.770 231.113 C 399.280 235.768, 387.114 241.257, 375.387 247.600 C 357.659 257.528, 340.414 269.809, 325.472 283.581 C 288.626 318.638, 261.719 364.716, 252.585 415.005 C 248.722 435.075, 247.416 456.118, 252.407 476.127 C 254.873 485.979, 258.140 494.814, 263.221 503.657 C 270.752 516.268, 281.180 525.639, 293.769 533.055 C 297.270 535.022, 301.799 536.302, 304.932 538.661 C 310.661 544.161, 301.233 546.691, 297.447 547.738 C 292.401 549.085, 287.184 550.470, 281.975 550.957 C 275.844 551.480, 270.219 552.106, 264.014 551.971 C 255.181 551.630, 245.145 549.095, 237.163 545.314 C 210.146 532.200, 197.342 506.246, 191.603 477.986 C 188.436 462.631, 188.000 452.612, 188.000 437.067 C 188.000 432.028, 187.832 426.927, 188.082 421.896 C 192.328 366.213, 219.259 313.700, 259.568 275.491 C 274.797 261.524, 292.175 249.557, 310.498 240.030 C 331.479 229.501, 354.750 222.756, 377.922 219.271 C 383.303 218.575, 388.734 218.385, 394.087 217.727 Z" /><path d="M 596.943 146.041 C 595.086 148.484, 596.089 155.411, 595.890 158.565 C 591.019 211.334, 574.587 242.336, 519.435 253.107 C 515.485 253.879, 504.153 254.542, 501.596 255.563 C 500.602 256.226, 500.301 256.901, 500.969 257.960 C 503.223 259.921, 514.321 259.861, 517.704 260.231 C 552.067 264.978, 579.605 283.395, 590.429 317.477 C 594.885 332.527, 595.666 346.851, 596.026 362.380 C 596.111 364.045, 597.242 368.714, 599.440 365.397 C 601.066 361.316, 601.688 345.010, 602.180 339.668 C 603.626 328.029, 607.103 315.952, 611.759 305.206 C 615.323 297.402, 620.756 290.244, 626.789 284.211 C 644.599 266.401, 661.262 262.249, 685.529 259.793 C 688.420 259.414, 694.174 259.450, 696.544 258.372 C 697.707 257.483, 697.697 256.499, 696.531 255.620 C 694.480 254.701, 683.373 254.098, 680.147 253.612 C 673.303 252.458, 666.284 251.104, 659.704 248.846 C 652.289 246.158, 644.268 242.539, 637.728 238.116 C 614.636 221.984, 603.868 195.631, 601.871 168.247 C 601.476 164.333, 600.516 148.989, 599.377 146.463 C 598.768 145.660, 598.313 145.423, 597.333 145.752 Z" /><path d="M 595.329 214.399 C 601.168 210.295, 604.102 218.111, 606.408 221.997 C 614.089 234.517, 623.717 242.697, 635.887 250.601 C 637.691 251.797, 639.556 252.892, 640.394 254.984 C 640.576 255.849, 640.522 255.411, 640.555 256.299 C 640.348 257.898, 639.738 258.835, 638.628 259.973 C 635.649 262.614, 631.982 264.595, 628.727 266.890 C 620.399 272.947, 613.661 280.034, 608.033 288.662 C 606.838 290.567, 605.676 292.496, 604.529 294.431 C 599.101 303.570, 595.851 299.104, 591.591 292.411 C 589.529 289.225, 587.453 286.032, 585.066 283.078 C 584.254 282.081, 583.457 281.073, 582.659 280.064 C 581.835 279.044, 580.985 278.072, 580.086 277.118 C 579.161 276.162, 578.220 275.232, 577.252 274.320 C 571.505 269.100, 565.070 265.368, 558.766 260.961 C 556.522 259.171, 555.624 256.948, 556.910 254.236 C 558.977 251.133, 563.941 249.105, 566.986 246.877 C 571.086 243.834, 575.345 240.662, 578.937 237.030 C 582.706 233.090, 586.470 228.321, 589.366 223.701 C 591.107 220.865, 592.658 217.371, 594.814 214.876 Z" /></g></svg>